<?xml version="1.0" encoding="utf-8"?>
<!-- Generator: Adobe Illustrator 24.2.3, SVG Export Plug-In . SVG Version: 6.00 Build 0)  -->
<svg version="1.1" id="Layer_1" xmlns="http://www.w3.org/2000/svg" xmlns:xlink="http://www.w3.org/1999/xlink" x="0px" y="0px"
	 viewBox="0 0 342 342" style="enable-background:new 0 0 342 342;" xml:space="preserve">
<style type="text/css">
	.st0{fill-rule:evenodd;clip-rule:evenodd;fill:#23403A;}
	.st1{fill:#142623;}
	.st2{fill:#23403A;}
</style>
<path class="st0" d="M171,318c81.2,0,147-65.8,147-147S252.2,24,171,24S24,89.8,24,171S89.8,318,171,318z M171,342
	c94.4,0,171-76.6,171-171S265.4,0,171,0S0,76.6,0,171S76.6,342,171,342z"/>
<g>
	<path class="st1" d="M132.3,87.9c-3.4,2.2-6.6,4.8-9.6,7.8c-3.9,3.9-7.1,8.1-9.7,12.7c-9.5,16.6-10.5,37-2.7,54.3
		c-17.5-8-38.1-7.2-55,2.5c-4.5,2.6-8.8,5.8-12.7,9.7c-3,3-5.6,6.2-7.8,9.6l36.8,37.4c1.3,1.3,2.9,2.8,4.3,3.9
		c17.5,15.3,39.5,23.5,61.2,20.5c12.8-1.8,25.2-6.9,35.8-15.5c1-0.8,2-1.7,3-2.6c0.8-0.9,1.6-1.8,2.4-2.7
		c8.7-10.5,14.2-22.5,15.9-35.3c3-21.7-5.2-43.7-20.5-61.2c-1.2-1.4-2.7-3-3.9-4.3L132.3,87.9z M172.9,220.1l-41.7-41.7l-0.5-0.5
		c-1.1-1.1-2.1-2.1-3.1-3.1c-16.4-16.6-19.7-42.4-8.1-62.8c2.3-4,5.2-7.8,8.5-11.1c1.1-1.1,2.3-2.2,3.5-3.2l32.8,32.3
		c1,1,2.3,2.4,3.6,3.9c7.1,8.2,12.4,17.1,15.7,26.5c3.3,9.6,4.4,19.3,3.1,28.7C185.2,200.2,180.5,210.8,172.9,220.1z M81,220
		c-1.4-1.3-2.9-2.6-3.9-3.6l-32.3-32.8c1-1.2,2.1-2.4,3.2-3.5c3.3-3.3,7-6.2,11.1-8.5c20.4-11.7,46.3-8.3,62.8,8.1
		c0.1,0.1,0.3,0.3,0.4,0.4c0,0,0,0,0.1,0.1c1.2,1.2,2.2,2.2,3.5,3.5l41.6,41.6c-9.1,7.2-19.8,11.8-31.4,13.4
		c-9.4,1.3-19,0.3-28.7-3.1C98.1,232.4,89.1,227.2,81,220z"/>
	<path class="st1" d="M303.1,187.1c-2.2-3.4-4.8-6.6-7.8-9.6c-3.9-3.9-8.1-7.1-12.7-9.7c-16.6-9.5-37-10.5-54.3-2.7
		c8-17.5,7.2-38.1-2.5-55c-2.6-4.5-5.8-8.8-9.7-12.7c-3-3-6.2-5.6-9.6-7.8l-37.4,36.8c-1.3,1.3-2.8,2.9-3.9,4.3
		c-15.3,17.5-23.5,39.5-20.5,61.2c1.8,12.8,6.9,25.2,15.5,35.8c0.8,1,1.7,2,2.6,3c0.9,0.8,1.8,1.6,2.7,2.4
		c10.5,8.7,22.5,14.2,35.3,15.9c21.7,3,43.7-5.2,61.2-20.5c1.4-1.2,3-2.7,4.3-3.9L303.1,187.1z M170.9,227.7l41.7-41.7l0.5-0.5
		c1.1-1.1,2.1-2.1,3.1-3.1c16.6-16.4,42.4-19.7,62.8-8.1c4,2.3,7.8,5.2,11.1,8.5c1.1,1.1,2.2,2.3,3.2,3.5L261,219.1
		c-1,1-2.4,2.3-3.9,3.6c-8.2,7.1-17.1,12.4-26.5,15.7c-9.6,3.3-19.3,4.4-28.7,3.1C190.7,240,180.2,235.3,170.9,227.7z M170.9,135.8
		c1.3-1.4,2.6-2.9,3.6-3.9l32.8-32.3c1.2,1,2.4,2.1,3.5,3.2c3.3,3.3,6.2,7,8.5,11.1c11.7,20.4,8.3,46.3-8.1,62.8
		c-0.1,0.1-0.3,0.3-0.4,0.4c0,0,0,0-0.1,0.1c-1.2,1.2-2.2,2.2-3.5,3.5l-41.6,41.6c-7.2-9.1-11.8-19.8-13.4-31.4
		c-1.3-9.4-0.3-19,3.1-28.7C158.5,152.8,163.8,143.9,170.9,135.8z"/>
</g>
<circle class="st2" cx="171" cy="86.3" r="15.2"/>
<circle class="st2" cx="97.4" cy="197" r="15.2"/>
<circle class="st2" cx="245.8" cy="197" r="15.2"/>
</svg>
